<svg width="303" height="286" viewBox="0 0 303 286" fill="none" xmlns="http://www.w3.org/2000/svg">
<g clip-path="url(#clip0)">
<path d="M284.128 122.824C284.128 122.824 243.115 23.0118 168.139 3.76531C93.1627 -15.4812 61.7176 43.3961 50.2276 84.3053C38.7377 125.214 -3.60143 179.279 0.243501 216.442C3.9026 251.745 34.9312 268.467 63.9156 275.62C100.756 284.728 142.621 285.419 179.597 277.825C188.389 275.971 197.068 273.623 205.595 270.794C222.968 265.143 240.02 260.765 257.617 256.092C291.1 247.188 304.365 211.348 300.584 176.997C298.457 157.686 291.363 140.402 284.128 122.824Z" fill="#92E3A9"/>
<path opacity="0.7" d="M284.128 122.824C284.128 122.824 243.115 23.0118 168.139 3.76531C93.1627 -15.4812 61.7176 43.3961 50.2276 84.3053C38.7377 125.214 -3.60143 179.279 0.243501 216.442C3.9026 251.745 34.9312 268.467 63.9156 275.62C100.756 284.728 142.621 285.419 179.597 277.825C188.389 275.971 197.068 273.623 205.595 270.794C222.968 265.143 240.02 260.765 257.617 256.092C291.1 247.188 304.365 211.348 300.584 176.997C298.457 157.686 291.363 140.402 284.128 122.824Z" fill="white"/>
<path d="M261.547 13.5571H142.674V177.731H261.547V13.5571Z" stroke="#263238" stroke-linecap="round" stroke-linejoin="round"/>
<path d="M202.109 13.6528V178.306" stroke="#263238" stroke-linecap="round" stroke-linejoin="round"/>
<path d="M261.641 95.9829H142.57" stroke="#263238" stroke-linecap="round" stroke-linejoin="round"/>
<path d="M261.641 54.7544H142.57" stroke="#263238" stroke-linecap="round" stroke-linejoin="round"/>
<path d="M261.641 137.211H142.57" stroke="#263238" stroke-linecap="round" stroke-linejoin="round"/>
<path d="M239.975 73.7832L228.389 84.8926" stroke="#263238" stroke-linecap="round" stroke-linejoin="round"/>
<path d="M257.207 57.2534L243.365 70.5297" stroke="#263238" stroke-linecap="round" stroke-linejoin="round"/>
<path d="M227.55 79.6001L223.871 83.1285" stroke="#263238" stroke-linecap="round" stroke-linejoin="round"/>
<path d="M243.352 64.4375L230.087 77.1641" stroke="#263238" stroke-linecap="round" stroke-linejoin="round"/>
<path d="M175.688 36.1914L164.102 47.3008" stroke="#263238" stroke-linecap="round" stroke-linejoin="round"/>
<path d="M192.92 19.6616L179.078 32.9443" stroke="#263238" stroke-linecap="round" stroke-linejoin="round"/>
<path d="M163.262 42.0083L159.584 45.5367" stroke="#263238" stroke-linecap="round" stroke-linejoin="round"/>
<path d="M179.065 26.8525L165.8 39.5727" stroke="#263238" stroke-linecap="round" stroke-linejoin="round"/>
<path d="M237.207 117.454L225.621 128.563" stroke="#263238" stroke-linecap="round" stroke-linejoin="round"/>
<path d="M254.439 100.924L240.597 114.207" stroke="#263238" stroke-linecap="round" stroke-linejoin="round"/>
<path d="M224.781 123.271L221.103 126.799" stroke="#263238" stroke-linecap="round" stroke-linejoin="round"/>
<path d="M240.584 108.115L227.313 120.835" stroke="#263238" stroke-linecap="round" stroke-linejoin="round"/>
<path d="M242.43 162.262L241.93 157.992C241.93 157.992 239.655 158.12 238.777 156.145C238.245 154.95 237.713 152.527 238.489 151.332C238.716 150.957 239.048 150.656 239.444 150.466C239.841 150.276 240.284 150.207 240.72 150.265C241.156 150.323 241.565 150.508 241.897 150.795C242.229 151.082 242.47 151.46 242.59 151.882C243.199 153.614 243.493 154.355 243.493 154.355C243.346 151.843 241.449 141.725 247.159 143.265C249.479 143.904 250.119 146.129 250.222 147.893C250.325 149.657 250.081 154.228 250.081 154.228C250.081 154.228 251.613 154.394 251.722 151.856C251.83 149.318 254.285 148.168 255.381 149.37C256.476 150.571 256.963 154.841 255.772 156.177C254.58 157.513 250.805 157.98 250.805 157.98L251.055 162.269L242.43 162.262Z" fill="#92E3A9" stroke="#263238" stroke-linecap="round" stroke-linejoin="round"/>
<path d="M245.711 143.968C245.711 143.968 244.769 144.825 245.025 147.74C245.281 150.654 245.288 155.87 245.288 155.87" stroke="#263238" stroke-width="0.5" stroke-linecap="round" stroke-linejoin="round"/>
<path d="M248.203 145.937C248.203 145.937 249.318 145.771 248.972 148.424C248.786 150.644 248.786 152.876 248.972 155.097" stroke="#263238" stroke-width="0.5" stroke-linecap="round" stroke-linejoin="round"/>
<path d="M240.135 151.587C240.135 151.587 239.02 151.843 239.533 153.646C240.046 155.448 240.219 156.81 241.423 157.072C241.957 157.205 242.502 157.29 243.051 157.327L243.224 159.207" stroke="#263238" stroke-width="0.5" stroke-linecap="round" stroke-linejoin="round"/>
<path d="M250.952 156.982C250.952 156.982 254.471 157.072 255.156 155.614C255.842 154.157 255.413 151.677 255.413 151.677" stroke="#263238" stroke-width="0.5" stroke-linecap="round" stroke-linejoin="round"/>
<path d="M241.59 152.061C241.59 152.12 241.573 152.178 241.539 152.228C241.506 152.277 241.459 152.316 241.404 152.338C241.349 152.361 241.289 152.367 241.23 152.355C241.172 152.344 241.118 152.315 241.076 152.273C241.034 152.231 241.005 152.178 240.994 152.119C240.982 152.061 240.988 152.001 241.011 151.946C241.034 151.891 241.072 151.844 241.122 151.811C241.171 151.778 241.229 151.76 241.289 151.76C241.369 151.76 241.445 151.792 241.502 151.848C241.558 151.905 241.59 151.981 241.59 152.061V152.061Z" stroke="#263238" stroke-width="0.5" stroke-linecap="round" stroke-linejoin="round"/>
<path d="M242.321 155.826C242.487 155.826 242.622 155.691 242.622 155.526C242.622 155.36 242.487 155.225 242.321 155.225C242.154 155.225 242.02 155.36 242.02 155.526C242.02 155.691 242.154 155.826 242.321 155.826Z" stroke="#263238" stroke-width="0.5" stroke-linecap="round" stroke-linejoin="round"/>
<path d="M240.821 154.413C240.987 154.413 241.122 154.278 241.122 154.112C241.122 153.947 240.987 153.812 240.821 153.812C240.655 153.812 240.52 153.947 240.52 154.112C240.52 154.278 240.655 154.413 240.821 154.413Z" stroke="#263238" stroke-width="0.5" stroke-linecap="round" stroke-linejoin="round"/>
<path d="M246.915 150.866C247.082 150.866 247.216 150.731 247.216 150.565C247.216 150.399 247.082 150.265 246.915 150.265C246.749 150.265 246.614 150.399 246.614 150.565C246.614 150.731 246.749 150.866 246.915 150.866Z" stroke="#263238" stroke-width="0.5" stroke-linecap="round" stroke-linejoin="round"/>
<path d="M244.083 147.95C244.249 147.95 244.384 147.816 244.384 147.65C244.384 147.484 244.249 147.35 244.083 147.35C243.917 147.35 243.782 147.484 243.782 147.65C243.782 147.816 243.917 147.95 244.083 147.95Z" stroke="#263238" stroke-width="0.5" stroke-linecap="round" stroke-linejoin="round"/>
<path d="M248.203 158.095C248.203 158.154 248.186 158.212 248.153 158.262C248.12 158.311 248.073 158.35 248.018 158.372C247.962 158.395 247.902 158.401 247.844 158.39C247.785 158.378 247.731 158.349 247.689 158.307C247.647 158.265 247.618 158.212 247.607 158.153C247.595 158.095 247.601 158.035 247.624 157.98C247.647 157.925 247.685 157.878 247.735 157.845C247.784 157.812 247.843 157.794 247.902 157.794C247.982 157.794 248.059 157.826 248.115 157.882C248.172 157.939 248.203 158.015 248.203 158.095V158.095Z" stroke="#263238" stroke-width="0.5" stroke-linecap="round" stroke-linejoin="round"/>
<path d="M244.942 157.666C244.942 157.726 244.924 157.784 244.891 157.833C244.858 157.882 244.811 157.921 244.756 157.944C244.701 157.966 244.64 157.972 244.582 157.961C244.523 157.949 244.47 157.921 244.428 157.879C244.385 157.837 244.357 157.783 244.345 157.725C244.334 157.666 244.339 157.606 244.362 157.551C244.385 157.496 244.424 157.449 244.473 157.416C244.523 157.383 244.581 157.366 244.641 157.366C244.68 157.366 244.719 157.373 244.756 157.389C244.792 157.404 244.826 157.426 244.854 157.454C244.881 157.482 244.904 157.515 244.919 157.551C244.934 157.588 244.942 157.627 244.942 157.666V157.666Z" stroke="#263238" stroke-width="0.5" stroke-linecap="round" stroke-linejoin="round"/>
<path d="M247.428 145.215C247.594 145.215 247.729 145.08 247.729 144.914C247.729 144.748 247.594 144.614 247.428 144.614C247.262 144.614 247.127 144.748 247.127 144.914C247.127 145.08 247.262 145.215 247.428 145.215Z" stroke="#263238" stroke-width="0.5" stroke-linecap="round" stroke-linejoin="round"/>
<path d="M253.823 150.603C253.823 150.663 253.806 150.721 253.773 150.77C253.74 150.819 253.692 150.858 253.637 150.881C253.582 150.903 253.522 150.909 253.463 150.898C253.405 150.886 253.351 150.858 253.309 150.816C253.267 150.774 253.238 150.72 253.227 150.662C253.215 150.603 253.221 150.543 253.244 150.488C253.267 150.433 253.305 150.386 253.355 150.353C253.404 150.32 253.463 150.303 253.522 150.303C253.562 150.303 253.601 150.311 253.637 150.326C253.674 150.341 253.707 150.363 253.735 150.391C253.763 150.419 253.785 150.452 253.8 150.488C253.816 150.525 253.823 150.564 253.823 150.603V150.603Z" stroke="#263238" stroke-width="0.5" stroke-linecap="round" stroke-linejoin="round"/>
<path d="M252.753 154.975C252.92 154.975 253.055 154.841 253.055 154.675C253.055 154.509 252.92 154.375 252.753 154.375C252.587 154.375 252.452 154.509 252.452 154.675C252.452 154.841 252.587 154.975 252.753 154.975Z" stroke="#263238" stroke-width="0.5" stroke-linecap="round" stroke-linejoin="round"/>
<path d="M247.428 154.886C247.594 154.886 247.729 154.752 247.729 154.586C247.729 154.42 247.594 154.285 247.428 154.285C247.262 154.285 247.127 154.42 247.127 154.586C247.127 154.752 247.262 154.886 247.428 154.886Z" stroke="#263238" stroke-width="0.5" stroke-linecap="round" stroke-linejoin="round"/>
<path d="M254.272 159.495H238.822L240.373 172.125H252.728L254.272 159.495Z" fill="white" stroke="#263238" stroke-linecap="round" stroke-linejoin="round"/>
<path d="M24.3706 136.208L36.1938 249.175" stroke="#263238" stroke-width="2" stroke-miterlimit="10"/>
<path d="M34.2904 227.557L28.9331 221.913" stroke="#263238" stroke-width="2" stroke-miterlimit="10"/>
<path d="M30.5609 223.6C30.5482 222.737 30.3514 221.887 29.9834 221.105C29.6155 220.324 29.0849 219.629 28.427 219.068C27.0492 217.841 19.8143 214.805 19.1222 217.349C18.3789 220.117 25.7868 225.55 30.5609 223.6Z" fill="#92E3A9" stroke="#263238" stroke-miterlimit="10"/>
<path d="M30.5608 223.601L23.6655 219.318" stroke="#263238" stroke-width="0.5" stroke-miterlimit="10"/>
<path d="M35.6297 240.405L30.2725 234.761" stroke="#263238" stroke-width="2" stroke-miterlimit="10"/>
<path d="M31.9002 236.448C31.89 235.585 31.6949 234.734 31.3279 233.953C30.961 233.171 30.4307 232.477 29.7727 231.916C28.3949 230.689 21.1536 227.653 20.4679 230.197C19.7246 232.965 27.1325 238.424 31.9002 236.448Z" fill="#92E3A9" stroke="#263238" stroke-miterlimit="10"/>
<path d="M31.9003 236.449L25.0115 232.166" stroke="#263238" stroke-width="0.5" stroke-miterlimit="10"/>
<path d="M31.0094 196.204L25.6521 190.56" stroke="#263238" stroke-width="2" stroke-miterlimit="10"/>
<path d="M27.2797 192.254C27.2692 191.389 27.0733 190.537 26.7053 189.754C26.3372 188.971 25.8055 188.276 25.1458 187.715C23.768 186.495 16.5331 183.452 15.8475 186.009C15.0977 188.764 22.5056 194.197 27.2797 192.254Z" fill="#92E3A9" stroke="#263238" stroke-miterlimit="10"/>
<path d="M27.2798 192.254L20.3845 187.971" stroke="#263238" stroke-width="0.5" stroke-miterlimit="10"/>
<path d="M32.3551 209.052L26.9915 203.408" stroke="#263238" stroke-width="2" stroke-miterlimit="10"/>
<path d="M28.6192 205.102C28.6091 204.238 28.414 203.386 28.0471 202.604C27.6802 201.821 27.1499 201.125 26.4917 200.564C25.1139 199.343 17.8726 196.307 17.1869 198.844C16.4436 201.612 23.8515 207.045 28.6192 205.102Z" fill="#92E3A9" stroke="#263238" stroke-miterlimit="10"/>
<path d="M28.6191 205.102L21.7302 200.819" stroke="#263238" stroke-width="0.5" stroke-miterlimit="10"/>
<path d="M28.8243 175.334L23.467 169.69" stroke="#263238" stroke-width="2" stroke-miterlimit="10"/>
<path d="M25.0944 171.384C25.0839 170.519 24.888 169.667 24.52 168.884C24.1519 168.101 23.6202 167.406 22.9605 166.845C21.5891 165.624 14.3478 162.582 13.6622 165.126C12.9124 167.894 20.3203 173.327 25.0944 171.384Z" fill="#92E3A9" stroke="#263238" stroke-miterlimit="10"/>
<path d="M25.0947 171.384L18.2058 167.101" stroke="#263238" stroke-width="0.5" stroke-miterlimit="10"/>
<path d="M26.6327 154.375L21.2754 148.73" stroke="#263238" stroke-width="2" stroke-miterlimit="10"/>
<path d="M22.903 150.418C22.8924 149.554 22.6965 148.703 22.3284 147.921C21.9603 147.139 21.4286 146.445 20.7691 145.886C19.3913 144.659 12.1564 141.622 11.4707 144.166C10.721 146.934 18.1289 152.361 22.903 150.418Z" fill="#92E3A9" stroke="#263238" stroke-miterlimit="10"/>
<path d="M22.9028 150.417L16.0076 146.135" stroke="#263238" stroke-width="0.5" stroke-miterlimit="10"/>
<path d="M33.387 219.957L37.4626 213.329" stroke="#263238" stroke-width="2" stroke-miterlimit="10"/>
<path d="M36.2194 215.316C36.051 214.47 36.0663 213.597 36.2642 212.757C36.462 211.917 36.8379 211.129 37.3664 210.445C38.4622 208.962 44.9153 204.501 46.1136 206.847C47.4209 209.397 41.2883 216.237 36.2194 215.316Z" fill="#92E3A9" stroke="#263238" stroke-miterlimit="10"/>
<path d="M36.2192 215.316L42.4224 209.404" stroke="#263238" stroke-width="0.5" stroke-miterlimit="10"/>
<path d="M29.8494 186.143L33.925 179.521" stroke="#263238" stroke-width="2" stroke-miterlimit="10"/>
<path d="M32.6819 181.534C32.5134 180.687 32.5287 179.813 32.7265 178.972C32.9243 178.131 33.3002 177.341 33.8289 176.657C34.9248 175.142 41.3778 170.668 42.5762 173.033C43.877 175.59 37.7508 182.429 32.6819 181.534Z" fill="#92E3A9" stroke="#263238" stroke-miterlimit="10"/>
<path d="M32.6821 181.509L38.8853 175.596" stroke="#263238" stroke-width="0.5" stroke-miterlimit="10"/>
<path d="M28.2986 171.288L32.3678 164.659" stroke="#263238" stroke-width="2" stroke-miterlimit="10"/>
<path d="M31.1246 166.654C30.9562 165.806 30.972 164.932 31.171 164.09C31.37 163.249 31.7475 162.46 32.2781 161.776C33.3674 160.293 39.8205 155.832 41.0189 158.178C42.3261 160.728 36.1999 167.568 31.1246 166.654Z" fill="#92E3A9" stroke="#263238" stroke-miterlimit="10"/>
<path d="M31.1248 166.653L37.3343 160.734" stroke="#263238" stroke-width="0.5" stroke-miterlimit="10"/>
<path d="M26.0176 149.504L30.0932 142.881" stroke="#263238" stroke-width="2" stroke-miterlimit="10"/>
<path d="M28.837 144.869C28.6694 144.02 28.6862 143.145 28.8863 142.302C29.0864 141.46 29.4651 140.67 29.9969 139.986C31.0863 138.503 37.5394 134.041 38.7377 136.387C40.045 138.95 33.9187 145.79 28.837 144.869Z" fill="#92E3A9" stroke="#263238" stroke-miterlimit="10"/>
<path d="M28.8499 144.87L35.053 138.951" stroke="#263238" stroke-width="0.5" stroke-miterlimit="10"/>
<path d="M24.2744 135.582C24.106 134.734 24.1212 133.861 24.319 133.02C24.5169 132.178 24.8928 131.389 25.4215 130.705C26.5173 129.222 32.9704 124.76 34.1687 127.106C35.4696 129.656 29.3433 136.496 24.2744 135.582Z" fill="#92E3A9" stroke="#263238" stroke-miterlimit="10"/>
<path d="M24.2744 135.582L30.4776 129.663" stroke="#263238" stroke-width="0.5" stroke-miterlimit="10"/>
<path d="M24.6333 135.837C23.7703 135.913 22.901 135.805 22.0833 135.52C21.2656 135.234 20.5183 134.778 19.8912 134.182C18.5327 132.948 14.7646 126.077 17.2254 125.131C19.904 124.108 26.0816 130.903 24.6333 135.837Z" fill="#92E3A9" stroke="#263238" stroke-miterlimit="10"/>
<path d="M24.6331 135.838L19.3848 129.062" stroke="#263238" stroke-width="0.5" stroke-miterlimit="10"/>
<path d="M55.5466 151.767L43.7939 264.74" stroke="#263238" stroke-width="2" stroke-miterlimit="10"/>
<path d="M46.3955 243.192L42.3135 236.57" stroke="#263238" stroke-width="2" stroke-miterlimit="10"/>
<path d="M43.576 238.558C43.7444 237.711 43.7292 236.837 43.5314 235.996C43.3335 235.155 42.9576 234.365 42.4289 233.681C41.3331 232.204 34.88 227.743 33.6817 230.089C32.3616 232.671 38.4879 239.479 43.576 238.558Z" fill="#92E3A9" stroke="#263238" stroke-miterlimit="10"/>
<path d="M43.5568 238.558L37.6997 232.952" stroke="#263238" stroke-width="0.5" stroke-miterlimit="10"/>
<path d="M49.6572 211.839L45.5752 205.217" stroke="#263238" stroke-width="2" stroke-miterlimit="10"/>
<path d="M46.8184 207.205C46.9869 206.357 46.9717 205.484 46.7738 204.643C46.576 203.801 46.2001 203.012 45.6714 202.328C44.5756 200.851 38.1225 196.39 36.9241 198.735C35.6233 201.292 41.7495 208.125 46.8184 207.205Z" fill="#92E3A9" stroke="#263238" stroke-miterlimit="10"/>
<path d="M46.8185 207.205L40.9614 201.599" stroke="#263238" stroke-width="0.5" stroke-miterlimit="10"/>
<path d="M48.3181 224.688L44.2424 218.065" stroke="#263238" stroke-width="2" stroke-miterlimit="10"/>
<path d="M45.4983 220.053C45.6666 219.206 45.6507 218.332 45.4517 217.492C45.2527 216.652 44.8753 215.864 44.3448 215.182C43.2554 213.699 36.796 209.237 35.5976 211.583C34.2839 214.133 40.4166 220.973 45.4983 220.053Z" fill="#92E3A9" stroke="#263238" stroke-miterlimit="10"/>
<path d="M45.4855 220.053L39.6284 214.447" stroke="#263238" stroke-width="0.5" stroke-miterlimit="10"/>
<path d="M51.8296 190.969L47.7476 184.347" stroke="#263238" stroke-width="2" stroke-miterlimit="10"/>
<path d="M48.991 186.335C49.1594 185.487 49.1442 184.614 48.9463 183.773C48.7485 182.931 48.3726 182.142 47.8439 181.458C46.7801 179.975 40.295 175.52 39.0903 177.865C37.8086 180.416 43.9221 187.287 48.991 186.335Z" fill="#92E3A9" stroke="#263238" stroke-miterlimit="10"/>
<path d="M48.9909 186.335L43.1338 180.729" stroke="#263238" stroke-width="0.5" stroke-miterlimit="10"/>
<path d="M54.0085 170.003L49.9265 163.381" stroke="#263238" stroke-width="2" stroke-miterlimit="10"/>
<path d="M51.1762 165.369C51.3423 164.522 51.3254 163.649 51.1265 162.809C50.9276 161.969 50.5512 161.181 50.0227 160.498C48.9269 159.015 42.4738 154.553 41.2754 156.905C39.9746 159.456 46.1008 166.295 51.1762 165.369Z" fill="#92E3A9" stroke="#263238" stroke-miterlimit="10"/>
<path d="M51.1763 165.369L45.3127 159.763" stroke="#263238" stroke-width="0.5" stroke-miterlimit="10"/>
<path d="M47.0811 235.567L52.4383 229.922" stroke="#263238" stroke-width="2" stroke-miterlimit="10"/>
<path d="M50.8108 231.616C50.8209 230.752 51.016 229.9 51.3829 229.118C51.7498 228.335 52.2801 227.639 52.9383 227.078C54.3161 225.85 61.551 222.814 62.2367 225.352C62.9864 228.12 55.5849 233.553 50.8108 231.616Z" fill="#92E3A9" stroke="#263238" stroke-miterlimit="10"/>
<path d="M50.8108 231.616L58.1034 227.097" stroke="#263238" stroke-width="0.5" stroke-miterlimit="10"/>
<path d="M50.5994 201.759L55.9566 196.108" stroke="#263238" stroke-width="2" stroke-miterlimit="10"/>
<path d="M54.3289 197.802C54.3387 196.939 54.5336 196.088 54.9006 195.306C55.2675 194.524 55.798 193.83 56.4564 193.27C57.8342 192.043 65.0691 189 65.7547 191.544C66.5045 194.318 59.0966 199.745 54.3289 197.802Z" fill="#92E3A9" stroke="#263238" stroke-miterlimit="10"/>
<path d="M54.3289 197.802L61.6214 193.289" stroke="#263238" stroke-width="0.5" stroke-miterlimit="10"/>
<path d="M52.1438 186.898L57.5011 181.253" stroke="#263238" stroke-width="2" stroke-miterlimit="10"/>
<path d="M55.8735 182.941C55.8838 182.078 56.0789 181.227 56.4458 180.445C56.8128 179.663 57.343 178.969 58.0011 178.409C59.3788 177.181 66.6137 174.139 67.2994 176.683C68.0492 179.451 60.6477 184.884 55.8735 182.941Z" fill="#92E3A9" stroke="#263238" stroke-miterlimit="10"/>
<path d="M55.8735 182.941L63.1661 178.428" stroke="#263238" stroke-width="0.5" stroke-miterlimit="10"/>
<path d="M54.4124 165.113L59.7632 159.469" stroke="#263238" stroke-width="2" stroke-miterlimit="10"/>
<path d="M58.1418 161.163C58.1503 160.299 58.3446 159.447 58.7117 158.664C59.0787 157.881 59.6099 157.186 60.2694 156.625C61.6407 155.398 68.882 152.355 69.5677 154.899C70.3175 157.667 62.9096 163.1 58.1418 161.163Z" fill="#92E3A9" stroke="#263238" stroke-miterlimit="10"/>
<path d="M58.1418 161.163L65.4344 156.644" stroke="#263238" stroke-width="0.5" stroke-miterlimit="10"/>
<path d="M55.5786 151.127C55.5892 150.264 55.7851 149.412 56.1532 148.63C56.5213 147.849 57.053 147.155 57.7125 146.595C59.0839 145.368 66.3188 142.325 67.0109 144.869C67.7606 147.656 60.3527 153.07 55.5786 151.127Z" fill="#92E3A9" stroke="#263238" stroke-miterlimit="10"/>
<path d="M55.5786 151.128L62.8712 146.615" stroke="#263238" stroke-width="0.5" stroke-miterlimit="10"/>
<path d="M55.8796 151.454C55.0192 151.353 54.1905 151.07 53.4488 150.623C52.7072 150.177 52.0699 149.577 51.5796 148.865C50.5031 147.375 48.2281 139.878 50.8363 139.462C53.6751 139.008 58.3147 146.922 55.8796 151.454Z" fill="#92E3A9" stroke="#263238" stroke-miterlimit="10"/>
<path d="M55.8798 151.453L52.1438 143.745" stroke="#263238" stroke-width="0.5" stroke-miterlimit="10"/>
<path d="M42.0828 105.763V248.625" stroke="#263238" stroke-width="2" stroke-miterlimit="10"/>
<path d="M42.1918 227.148L37.4497 220.973" stroke="#263238" stroke-width="2" stroke-miterlimit="10"/>
<path d="M38.8981 222.827C38.9765 221.967 38.8696 221.1 38.5844 220.284C38.2992 219.468 37.8425 218.722 37.2448 218.097C36.008 216.736 29.1192 212.984 28.1772 215.425C27.1454 218.097 33.9638 224.265 38.8981 222.827Z" fill="#92E3A9" stroke="#263238" stroke-miterlimit="10"/>
<path d="M38.898 222.827L32.4897 217.854" stroke="#263238" stroke-width="0.5" stroke-miterlimit="10"/>
<path d="M42.1918 200.295L37.4497 194.127" stroke="#263238" stroke-width="2" stroke-miterlimit="10"/>
<path d="M38.8981 195.981C38.9765 195.12 38.8696 194.253 38.5844 193.437C38.2992 192.621 37.8425 191.876 37.2448 191.25C36.008 189.889 29.1192 186.137 28.1772 188.572C27.1454 191.25 33.9638 197.419 38.8981 195.981Z" fill="#92E3A9" stroke="#263238" stroke-miterlimit="10"/>
<path d="M38.898 195.98L32.4897 191.007" stroke="#263238" stroke-width="0.5" stroke-miterlimit="10"/>
<path d="M42.1918 168.776L37.4497 162.607" stroke="#263238" stroke-width="2" stroke-miterlimit="10"/>
<path d="M38.8981 164.455C38.9765 163.594 38.8696 162.727 38.5844 161.911C38.2992 161.096 37.8425 160.35 37.2448 159.725C36.008 158.363 29.1192 154.611 28.1772 157.053C27.1454 159.725 33.9638 165.893 38.8981 164.455Z" fill="#92E3A9" stroke="#263238" stroke-miterlimit="10"/>
<path d="M38.898 164.455L32.4897 159.482" stroke="#263238" stroke-width="0.5" stroke-miterlimit="10"/>
<path d="M42.1918 147.79L37.4497 141.622" stroke="#263238" stroke-width="2" stroke-miterlimit="10"/>
<path d="M38.8981 143.47C38.9768 142.61 38.87 141.744 38.5848 140.929C38.2996 140.114 37.8427 139.37 37.2448 138.746C36.008 137.385 29.1192 133.632 28.1772 136.068C27.1454 138.746 33.9638 144.914 38.8981 143.47Z" fill="#92E3A9" stroke="#263238" stroke-miterlimit="10"/>
<path d="M38.898 143.47L32.4897 138.497" stroke="#263238" stroke-width="0.5" stroke-miterlimit="10"/>
<path d="M42.1918 126.716L37.4497 120.548" stroke="#263238" stroke-width="2" stroke-miterlimit="10"/>
<path d="M38.8981 122.395C38.9765 121.535 38.8696 120.668 38.5844 119.852C38.2992 119.036 37.8425 118.29 37.2448 117.665C36.008 116.304 29.1192 112.551 28.1772 114.993C27.1454 117.665 33.9638 123.84 38.8981 122.395Z" fill="#92E3A9" stroke="#263238" stroke-miterlimit="10"/>
<path d="M38.898 122.395L32.4897 117.422" stroke="#263238" stroke-width="0.5" stroke-miterlimit="10"/>
<path d="M42.0894 235.343L46.8314 229.174" stroke="#263238" stroke-width="2" stroke-miterlimit="10"/>
<path d="M45.3895 231.028C45.3057 230.165 45.4095 229.294 45.6937 228.474C45.9779 227.655 46.4358 226.906 47.0364 226.279C48.2796 224.917 55.162 221.165 56.1104 223.601C57.1421 226.279 50.3366 232.466 45.3895 231.028Z" fill="#92E3A9" stroke="#263238" stroke-miterlimit="10"/>
<path d="M45.3894 231.028L52.1757 225.787" stroke="#263238" stroke-width="0.5" stroke-miterlimit="10"/>
<path d="M42.0894 192.644L46.8314 186.476" stroke="#263238" stroke-width="2" stroke-miterlimit="10"/>
<path d="M45.3895 188.323C45.309 187.463 45.4144 186.596 45.6985 185.78C45.9826 184.964 46.4388 184.218 47.0364 183.593C48.2796 182.231 55.1621 178.479 56.1105 180.921C57.1422 183.593 50.3367 189.761 45.3895 188.323Z" fill="#92E3A9" stroke="#263238" stroke-miterlimit="10"/>
<path d="M45.3894 188.323L52.1757 183.082" stroke="#263238" stroke-width="0.5" stroke-miterlimit="10"/>
<path d="M42.0894 171.569L46.8314 165.4" stroke="#263238" stroke-width="2" stroke-miterlimit="10"/>
<path d="M45.3895 167.248C45.309 166.388 45.4144 165.521 45.6985 164.705C45.9826 163.889 46.4388 163.143 47.0364 162.518C48.2796 161.157 55.1621 157.404 56.1105 159.846C57.1422 162.518 50.3367 168.686 45.3895 167.248Z" fill="#92E3A9" stroke="#263238" stroke-miterlimit="10"/>
<path d="M45.3894 167.248L52.1757 162.007" stroke="#263238" stroke-width="0.5" stroke-miterlimit="10"/>
<path d="M42.0894 143.713L46.8314 137.544" stroke="#263238" stroke-width="2" stroke-miterlimit="10"/>
<path d="M45.3895 139.391C45.309 138.531 45.4144 137.664 45.6985 136.848C45.9826 136.032 46.4388 135.286 47.0364 134.661C48.2796 133.3 55.1621 129.548 56.1105 131.989C57.1422 134.661 50.3367 140.83 45.3895 139.391Z" fill="#92E3A9" stroke="#263238" stroke-miterlimit="10"/>
<path d="M45.3894 139.392L52.1757 134.15" stroke="#263238" stroke-width="0.5" stroke-miterlimit="10"/>
<path d="M42.0894 121.813L46.8314 115.639" stroke="#263238" stroke-width="2" stroke-miterlimit="10"/>
<path d="M45.3895 117.492C45.309 116.632 45.4144 115.765 45.6985 114.949C45.9826 114.133 46.4388 113.387 47.0364 112.762C48.2796 111.401 55.1621 107.649 56.1105 110.09C57.1422 112.762 50.3367 118.931 45.3895 117.492Z" fill="#92E3A9" stroke="#263238" stroke-miterlimit="10"/>
<path d="M45.3894 117.492L52.1757 112.251" stroke="#263238" stroke-width="0.5" stroke-miterlimit="10"/>
<path d="M41.8072 107.776C41.7267 106.916 41.8321 106.049 42.1162 105.233C42.4003 104.417 42.8565 103.671 43.4541 103.046C44.6973 101.691 51.5798 97.9325 52.5282 100.374C53.5535 103.046 46.78 109.221 41.8072 107.776Z" fill="#92E3A9" stroke="#263238" stroke-miterlimit="10"/>
<path d="M41.8071 107.777L48.5935 102.535" stroke="#263238" stroke-width="0.5" stroke-miterlimit="10"/>
<path d="M42.1341 108.07C41.2677 108.06 40.4138 107.863 39.63 107.495C38.8462 107.127 38.1508 106.595 37.5907 105.936C36.3667 104.568 33.3228 97.3446 35.8861 96.6606C38.6544 95.9192 44.0886 103.315 42.1341 108.07Z" fill="#92E3A9" stroke="#263238" stroke-miterlimit="10"/>
<path d="M42.1342 108.07L37.6228 100.79" stroke="#263238" stroke-width="0.5" stroke-miterlimit="10"/>
<path d="M47.9718 285.68H32.8036L30.9067 247.468H49.8687L47.9718 285.68Z" fill="#263238" stroke="#263238" stroke-miterlimit="10"/>
<path d="M185.025 130.398H231.799L220.905 170.425H174.131L185.025 130.398Z" fill="#7D7D7D" stroke="#263238" stroke-linecap="round" stroke-linejoin="round"/>
<path d="M186.358 131.887H229.646L219.565 168.936H176.278L186.358 131.887Z" fill="white" stroke="#263238" stroke-linecap="round" stroke-linejoin="round"/>
<path d="M220.905 168.303H155.336V170.431H220.905V168.303Z" fill="#7D7D7D" stroke="#263238" stroke-linecap="round" stroke-linejoin="round"/>
<path d="M220.905 168.303H190.773V170.431H220.905V168.303Z" fill="#595959" stroke="#263238" stroke-linecap="round" stroke-linejoin="round"/>
<path d="M137.886 173.819H134.361V285.431H137.886V173.819Z" fill="white" stroke="#263238" stroke-linecap="round" stroke-linejoin="round"/>
<path d="M131.349 285.431H134.361V173.819H131.349V285.431Z" fill="#A8A8A8" stroke="#263238" stroke-linecap="round" stroke-linejoin="round"/>
<path d="M228.172 232.217H224.647V285.431H228.172V232.217Z" fill="white" stroke="#263238" stroke-linecap="round" stroke-linejoin="round"/>
<path d="M221.635 285.437H224.647V232.223H221.635V285.437Z" fill="#A8A8A8" stroke="#263238" stroke-linecap="round" stroke-linejoin="round"/>
<path d="M265.916 232.217H262.392V285.431H265.916V232.217Z" fill="white" stroke="#263238" stroke-linecap="round" stroke-linejoin="round"/>
<path d="M259.38 285.437H262.392V232.223H259.38V285.437Z" fill="#A8A8A8" stroke="#263238" stroke-linecap="round" stroke-linejoin="round"/>
<path d="M189.716 235.253H224.102V174.899H189.716V235.253Z" fill="#A8A8A8" stroke="#263238" stroke-linecap="round" stroke-linejoin="round"/>
<path d="M269.415 174.905H224.102V235.259H269.415V174.905Z" fill="white" stroke="#263238" stroke-linecap="round" stroke-linejoin="round"/>
<path d="M224.102 174.905H189.716V177.846H224.102H269.415V174.905H224.102Z" fill="#263238" stroke="#263238" stroke-linecap="round" stroke-linejoin="round"/>
<path d="M221.968 178.364H192.651V192.452H221.968V178.364Z" fill="white" stroke="#263238" stroke-linecap="round" stroke-linejoin="round"/>
<path d="M211.17 184.079H203.442V186.738H211.17V184.079Z" fill="#263238"/>
<path d="M221.968 197.77H192.651V211.858H221.968V197.77Z" fill="white" stroke="#263238" stroke-linecap="round" stroke-linejoin="round"/>
<path d="M211.17 203.223H203.442V205.882H211.17V203.223Z" fill="#263238"/>
<path d="M221.968 217.176H192.651V231.264H221.968V217.176Z" fill="white" stroke="#263238" stroke-linecap="round" stroke-linejoin="round"/>
<path d="M211.17 222.36H203.442V225.019H211.17V222.36Z" fill="#263238"/>
<path d="M274.086 172.253H126.486V175.762H274.086V172.253Z" fill="#A8A8A8" stroke="#263238" stroke-linecap="round" stroke-linejoin="round"/>
<path d="M274.086 172.253H229.517V175.762H274.086V172.253Z" fill="white" stroke="#263238" stroke-linecap="round" stroke-linejoin="round"/>
<path d="M139.007 207.972C139.007 207.972 143.403 211.008 149.901 229.775C152.073 236.014 164.249 269.655 164.89 271.963C165.531 274.27 166.812 277.076 168.735 277.076C170.657 277.076 177.706 268.128 176.854 267.066C176.002 266.005 171.939 261.736 171.939 261.736C171.939 261.736 169.517 234.505 169.087 226.835C168.658 219.164 170.407 209.928 166.351 203.747C162.295 197.566 144.352 203.958 144.352 203.958L139.007 207.972Z" fill="white" stroke="#263238" stroke-linecap="round" stroke-linejoin="round"/>
<path d="M173.881 261.768C173.386 262.032 172.98 262.436 172.715 262.93C172.449 263.423 172.335 263.984 172.388 264.542C172.599 266.459 174.522 269.016 174.522 269.016C174.522 269.016 170.465 272.212 168.325 272.423C166.185 272.634 163.839 273.062 163.839 273.702C163.839 274.341 165.55 275.408 166.621 277.748C167.795 280.122 169.151 282.402 170.677 284.568C171.318 285.418 171.747 286.057 174.093 285.418C176.438 284.779 181.571 280.094 184.346 278.176C187.12 276.258 195.457 274.98 196.951 273.912C198.444 272.845 203.147 266.031 201.007 264.753C198.867 263.474 198.232 264.964 195.669 265.603C193.106 266.242 185.627 265.392 181.571 264.542C177.514 263.692 176.233 263.474 176.233 263.474L173.881 261.768Z" fill="#92E3A9" stroke="#263238" stroke-linecap="round" stroke-linejoin="round"/>
<path d="M170.331 284.083C170.472 284.287 170.594 284.453 170.677 284.568C171.318 285.418 171.747 286.058 174.093 285.418C176.438 284.779 181.571 280.094 184.346 278.176C187.121 276.259 195.458 274.98 196.951 273.913C198.444 272.845 203.148 266.031 201.007 264.753C200.707 264.565 200.381 264.423 200.04 264.331C200.078 264.472 200.116 264.6 200.155 264.753C200.796 267.31 198.662 269.867 196.739 271.784C194.817 273.702 188.409 273.274 181.36 276.898C177.462 278.936 173.769 281.342 170.331 284.083Z" fill="white" stroke="#263238" stroke-linecap="round" stroke-linejoin="round"/>
<path d="M170.132 240.45C169.67 234.844 169.26 229.584 169.107 226.867C168.684 219.197 170.427 209.96 166.37 203.779C162.314 197.598 144.371 203.99 144.371 203.99L139.007 207.972C139.007 207.972 143.403 211.008 149.901 229.775C150.734 232.16 153.028 238.558 155.579 245.673L170.132 240.45Z" fill="#263238" stroke="#263238" stroke-linecap="round" stroke-linejoin="round"/>
<path d="M159.674 98.6806C160.228 100.161 160.492 101.735 160.449 103.315C160.251 105.443 158.315 106.409 158.123 105.833C157.952 104.876 157.885 103.903 157.925 102.931V102.158C157.449 102.947 156.862 103.664 156.181 104.286C154.823 105.635 154.048 105.252 153.471 105.252C152.894 105.252 152.695 103.334 153.663 101.966C154.631 100.598 157.732 97.5172 159.674 98.6806Z" fill="white" stroke="#263238" stroke-linecap="round" stroke-linejoin="round"/>
<path d="M164.128 103.704C162.205 102.541 159.283 106.606 154.823 105.622C154.259 105.501 154.048 104.657 155.022 102.727C155.996 100.796 159.091 99.2428 160.642 98.0859C162.193 96.9289 163.352 95.9573 163.352 94.6022C163.352 93.2471 159.866 95.3756 158.899 96.1491C157.722 96.8764 156.5 97.5276 155.24 98.0987L154.407 98.1434C152.676 98.2521 150.023 98.5589 149.011 99.4218C147.697 100.566 146.941 104.497 146.621 106.012C145.762 107.252 144.993 108.396 144.551 109.087C143.199 111.209 115.867 131.126 115.867 131.126L117.79 148.136L148.799 112.979C149.658 112.279 150.647 111.753 151.709 111.432C153.836 110.659 156.746 110.077 159.264 108.722C161.131 107.737 162.943 106.651 164.692 105.469C166.025 104.599 165.179 104.331 164.128 103.704Z" fill="white" stroke="#263238" stroke-linecap="round" stroke-linejoin="round"/>
<path d="M131.536 119.531C123.948 125.246 115.867 131.133 115.867 131.133L117.79 148.142L136.854 126.563L131.536 119.531Z" fill="#92E3A9" stroke="#263238" stroke-linecap="round" stroke-linejoin="round"/>
<path d="M122 183.88C122 183.88 135.675 183.241 155.541 186.437C175.406 189.633 182.84 193.04 182.237 196.875C179.821 212.434 143.397 263.653 143.397 263.653L144.038 270.895C144.038 270.895 142.756 272.602 138.271 272.813C133.785 273.024 128.235 266.638 128.235 266.638C128.235 266.638 133.247 261.461 135.169 255.286C137.091 249.111 152.548 209.231 152.548 209.231C152.548 209.231 132.253 213.706 109.824 209.659C87.3957 205.613 122 183.88 122 183.88Z" fill="white" stroke="#263238" stroke-linecap="round" stroke-linejoin="round"/>
<path d="M155.541 186.437C135.675 183.241 122 183.88 122 183.88C122 183.88 87.3957 205.613 109.825 209.659C132.253 213.706 152.548 209.231 152.548 209.231C152.548 209.231 146.14 225.851 141.013 239.274L156.079 245.027C166.838 228.753 180.757 206.278 182.218 196.863C182.84 193.04 175.406 189.633 155.541 186.437Z" fill="#263238" stroke="#263238" stroke-linecap="round" stroke-linejoin="round"/>
<path d="M143.397 263.653C142.965 263.83 142.573 264.091 142.243 264.42C141.914 264.749 141.652 265.14 141.474 265.571C141.063 266.545 140.708 267.541 140.411 268.556C138.071 268.054 135.782 267.34 133.573 266.421C131.949 265.679 130.38 264.825 128.876 263.864C128.876 263.864 126.953 264.081 126.953 265.36C126.94 267.325 126.578 269.273 125.883 271.113C125.332 272.48 124.166 275.529 123.397 277.505C123.308 277.738 123.271 277.987 123.287 278.236C123.303 278.484 123.373 278.727 123.492 278.946C123.61 279.166 123.775 279.357 123.974 279.508C124.173 279.658 124.402 279.764 124.646 279.819C128.03 280.566 135.162 282.209 141.263 284.082C149.594 286.639 158.777 285.36 159.847 285.15C160.917 284.939 165.185 282.375 163.262 280.675C161.34 278.975 150.023 274.494 147.671 271.509C145.319 268.524 143.397 263.653 143.397 263.653Z" fill="#92E3A9" stroke="#263238" stroke-linecap="round" stroke-linejoin="round"/>
<path d="M162.41 280.1C162.41 282.216 161.321 284.319 157.924 284.319C154.528 284.319 148.523 283.897 139.981 280.484C134.828 278.469 129.534 276.837 124.14 275.6C123.877 276.284 123.621 276.955 123.397 277.518C123.308 277.751 123.271 278 123.287 278.249C123.303 278.498 123.373 278.74 123.492 278.959C123.61 279.179 123.775 279.37 123.974 279.521C124.173 279.671 124.402 279.777 124.646 279.832C128.03 280.58 135.162 282.222 141.263 284.095C149.594 286.652 158.777 285.374 159.847 285.163C160.917 284.952 165.185 282.388 163.262 280.688C162.995 280.469 162.71 280.272 162.41 280.1Z" fill="white" stroke="#263238" stroke-linecap="round" stroke-linejoin="round"/>
<path d="M78.8532 134.233C78.8532 134.233 76.5271 152.604 76.7193 156.081C76.9115 159.559 79.43 189.525 80.0131 196.102C80.5963 202.68 83.3069 208.484 88.1516 209.66C92.9962 210.836 105.595 212.555 111.023 211.207C116.45 209.858 122.263 197.675 124.204 193.034C126.146 188.393 127.498 185.491 126.915 184.526C126.332 183.561 123.813 181.432 123.813 181.432C123.813 181.432 118.969 146.276 117.809 137.161C116.649 128.046 117.226 127.304 112.964 123.821C108.703 120.337 86.6008 117.429 78.8532 134.233Z" fill="#92E3A9" stroke="#263238" stroke-linecap="round" stroke-linejoin="round"/>
<path d="M109.863 198.352C109.164 198.882 108.44 199.387 107.69 199.86" stroke="#263238" stroke-linecap="round" stroke-linejoin="round"/>
<path d="M122.641 182.813C122.641 182.813 118.526 190.867 111.747 196.837" stroke="#263238" stroke-linecap="round" stroke-linejoin="round"/>
<path d="M119.655 183.241C119.655 183.241 113.028 189.416 106.409 193.251" stroke="#263238" stroke-linecap="round" stroke-linejoin="round"/>
<path d="M124.961 76.442C126.039 78.6742 126.897 81.0054 127.524 83.403C128.107 86.305 128.299 89.0088 129.658 89.5905C131.016 90.1722 133.535 90.3639 133.144 91.9108C132.753 93.4577 130.235 95.9698 130.235 95.9698C130.235 95.9698 130.818 105.251 130.625 106.99C130.433 108.728 120.161 108.728 119.578 108.728C118.995 108.728 113.169 122.458 113.169 122.458L96.8862 114.334L99.9686 104.286C99.9686 104.286 94.9317 94.6146 94.5408 90.3639C94.1499 86.1132 104.038 78.3788 109.658 76.6402C115.278 74.9015 124.961 76.442 124.961 76.442Z" fill="white" stroke="#263238" stroke-linecap="round" stroke-linejoin="round"/>
<path d="M119.552 108.729L114.381 107.259L116.316 114.808L119.552 108.729Z" fill="#263238" stroke="#263238" stroke-linecap="round" stroke-linejoin="round"/>
<path d="M126.883 87.3796C127.146 88.4726 127.018 89.4378 126.601 89.5337C126.185 89.6296 125.633 88.8306 125.377 87.744C125.121 86.6573 125.236 85.6857 125.653 85.5898C126.069 85.494 126.633 86.293 126.883 87.3796Z" fill="#263238"/>
<path d="M123.621 97.7085C123.621 97.7085 125.947 99.4536 128.107 98.6801" stroke="#263238" stroke-linecap="round" stroke-linejoin="round"/>
<path d="M124.012 72.7735C124.012 72.7735 126.723 77.6059 124.788 80.6997C122.852 83.7934 118.194 85.1422 115.675 88.0441C113.157 90.9461 111.83 95.9703 110.83 96.3538C109.831 96.7374 106.986 90.9397 105.21 91.3233C103.435 91.7068 100.558 95.7977 103.077 100.023C103.77 101.233 104.795 102.221 106.03 102.872C107.266 103.523 108.662 103.809 110.055 103.698C110.055 103.698 103.077 107.374 101.724 107.374C100.372 107.374 96.303 105.053 94.3614 102.899C92.4197 100.745 85.4475 94.3915 85.0566 89.1755C84.6657 83.9596 91.6379 77.4141 91.6379 77.4141C91.6379 77.4141 83.3072 76.8325 85.4347 73.7387C87.5622 70.6449 95.1239 68.7145 95.1239 68.7145C95.1239 68.7145 93.7654 63.8821 95.7071 62.9105C97.6488 61.9389 109.472 65.8381 109.472 65.8381C109.472 65.8381 106.178 61.5874 110.83 61.3637C115.483 61.1399 123.429 66.9695 124.012 72.7735Z" fill="#263238" stroke="#263238" stroke-linecap="round" stroke-linejoin="round"/>
<path d="M108.587 93.7651L133.31 83.7935" stroke="#263238" stroke-linecap="round" stroke-linejoin="round"/>
<path d="M126.883 82.3935C127.421 82.1699 127.998 82.0548 128.581 82.0548C129.548 82.0491 130.49 82.3645 131.257 82.9513C132.025 83.5381 132.575 84.3629 132.821 85.2959C133.067 86.2289 132.995 87.217 132.616 88.1046C132.237 88.9921 131.573 89.7287 130.728 90.1983" stroke="#263238" stroke-linecap="round" stroke-linejoin="round"/>
<path d="M117.809 127.841C117.809 127.841 117.61 122.235 116.066 120.688C114.522 119.142 103.076 112.762 97.8473 111.413C92.6182 110.065 87.184 111.989 83.698 113.152C80.2119 114.315 77.8793 117.595 76.5272 124.754C75.175 131.913 74.9764 136.375 77.8793 136.79C80.7822 137.206 84.8579 128.48 93.9703 126.735C103.083 124.99 111.414 126.544 113.349 127.509C115.284 128.474 117.809 127.841 117.809 127.841Z" fill="#92E3A9" stroke="#263238" stroke-linecap="round" stroke-linejoin="round"/>
<path d="M88.3697 121.935C86.6203 122.574 85.4412 123.034 85.4412 123.034" stroke="#263238" stroke-linecap="round" stroke-linejoin="round"/>
<path d="M117.809 127.841C117.809 127.841 105.595 121.079 101.147 119.723C98.8149 119.02 94.6367 119.947 91.1763 121.002" stroke="#263238" stroke-linecap="round" stroke-linejoin="round"/>
<path d="M175.361 159.29C175.361 159.29 174.72 163.311 173.977 163.765C173.233 164.219 173.285 160.032 173.285 160.032C173.285 160.032 172.368 162.442 171.792 163.017C171.215 163.592 171.561 160.55 171.561 160.55L172.202 157.68L175.361 159.29Z" fill="white" stroke="#263238" stroke-linecap="round" stroke-linejoin="round"/>
<path d="M167.152 155.327L173.099 155.423C173.099 155.423 174.669 155.647 174.893 156.542C175.212 157.532 175.586 158.503 176.015 159.45L166.819 156.765L167.152 155.327Z" fill="white" stroke="#263238" stroke-linecap="round" stroke-linejoin="round"/>
<path d="M169.286 157.199C169.286 157.199 177.585 156.081 177.809 156.752C177.976 157.257 178.623 161.808 178.758 163.278C178.763 163.329 178.752 163.38 178.726 163.423C178.699 163.467 178.659 163.5 178.611 163.519C178.564 163.537 178.511 163.539 178.462 163.524C178.414 163.51 178.371 163.479 178.341 163.438L176.015 159.437L169.735 159.884C169.735 159.884 167.941 158.318 169.286 157.199Z" fill="white" stroke="#263238" stroke-linecap="round" stroke-linejoin="round"/>
<path d="M100.411 132.137C100.411 132.137 95.252 135.94 97.0463 145.343C98.8406 154.745 111.401 180.499 112.522 182.711C113.644 184.922 118.584 185.172 120.853 184.501C123.121 183.829 163.025 167.945 163.025 167.945C163.025 167.945 167.293 166.82 167.966 165.925C168.639 165.03 172.9 160.332 172.9 160.332C172.9 160.332 179.629 161.227 181.231 160.78C182.833 160.332 179.661 159.885 178.091 159.437C176.88 159.092 170.209 156.491 167.197 155.314C166.764 155.14 166.289 155.099 165.832 155.196C165.376 155.292 164.958 155.523 164.634 155.858C162.532 158.005 158.053 162.563 157.2 163.241C156.079 164.135 124.448 169.511 124.448 169.511C124.448 169.511 117.014 134.821 114.067 131.913C111.119 129.005 105.992 129.676 105.992 129.676" fill="#92E3A9"/>
<path d="M100.411 132.137C100.411 132.137 95.252 135.94 97.0463 145.343C98.8406 154.745 111.401 180.499 112.522 182.711C113.644 184.922 118.584 185.172 120.853 184.501C123.121 183.829 163.025 167.945 163.025 167.945C163.025 167.945 167.293 166.82 167.966 165.925C168.639 165.03 172.9 160.332 172.9 160.332C172.9 160.332 179.629 161.227 181.231 160.78C182.833 160.332 179.661 159.885 178.091 159.437C176.88 159.092 170.209 156.491 167.197 155.314C166.764 155.14 166.289 155.099 165.832 155.196C165.376 155.292 164.958 155.523 164.634 155.858C162.532 158.005 158.053 162.563 157.2 163.241C156.079 164.135 124.448 169.511 124.448 169.511C124.448 169.511 117.014 134.821 114.067 131.913C111.119 129.005 105.992 129.676 105.992 129.676" stroke="#263238" stroke-linecap="round" stroke-linejoin="round"/>
<path d="M142.135 176.216C152.612 172.074 163 167.945 163 167.945C163 167.945 167.268 166.82 167.941 165.925C168.613 165.03 172.875 160.332 172.875 160.332C172.875 160.332 179.603 161.227 181.206 160.78C182.808 160.332 179.636 159.885 178.066 159.437C176.854 159.092 170.183 156.491 167.172 155.314C166.739 155.14 166.263 155.099 165.807 155.196C165.35 155.292 164.933 155.523 164.608 155.858C162.506 158.005 158.027 162.563 157.175 163.241C156.592 163.707 147.755 165.382 139.411 166.884L142.135 176.216Z" fill="white" stroke="#263238" stroke-linecap="round" stroke-linejoin="round"/>
<path d="M72.0156 220.257L62.2494 285.034C62.2296 285.164 62.259 285.297 62.3317 285.407C62.4045 285.517 62.5155 285.595 62.6433 285.628C62.771 285.661 62.9063 285.645 63.023 285.584C63.1397 285.522 63.2294 285.42 63.2748 285.296L78.0137 221.325L72.0156 220.257Z" fill="#9C9C9C" stroke="#263238" stroke-linecap="round" stroke-linejoin="round"/>
<path d="M86.6011 220.686L90.8561 284.913C90.8705 285.043 90.9324 285.163 91.0299 285.25C91.1275 285.337 91.2538 285.385 91.3848 285.385C91.5158 285.385 91.6422 285.337 91.7397 285.25C91.8373 285.163 91.8991 285.043 91.9135 284.913L92.6569 220.168L86.6011 220.686Z" fill="#9C9C9C" stroke="#263238" stroke-linecap="round" stroke-linejoin="round"/>
<path d="M100.936 221.657L112.599 284.766C112.61 284.835 112.634 284.901 112.671 284.96C112.707 285.02 112.755 285.071 112.812 285.112C112.868 285.153 112.932 285.183 113 285.199C113.068 285.215 113.139 285.218 113.208 285.207C113.277 285.196 113.343 285.172 113.403 285.135C113.462 285.099 113.514 285.051 113.555 284.995C113.596 284.939 113.626 284.875 113.642 284.807C113.658 284.739 113.661 284.669 113.65 284.6L106.851 220.277L100.936 221.657Z" fill="#9C9C9C" stroke="#263238" stroke-linecap="round" stroke-linejoin="round"/>
<path d="M123.48 221.12L133.022 284.657C133.038 284.797 133.11 284.925 133.22 285.012C133.331 285.1 133.472 285.14 133.612 285.124C133.752 285.108 133.88 285.037 133.968 284.927C134.056 284.816 134.096 284.676 134.08 284.536L129.447 219.976L123.48 221.12Z" fill="#9C9C9C" stroke="#263238" stroke-linecap="round" stroke-linejoin="round"/>
<path d="M114.361 208.189C114.361 208.189 103.147 204.456 97.9114 191.033C92.6759 177.609 84.0761 154.483 78.0908 151.491C72.1055 148.5 60.5194 154.099 59.7697 175.73C59.0199 197.361 60.7758 213.443 65.6076 218.762C69.8819 223.447 77.1424 229.417 102.352 229.839C124.858 230.222 134.054 221.664 137.168 218.762C140.283 215.86 145.396 209.659 141.282 209.659C137.168 209.659 119.597 209.659 114.361 208.189Z" fill="white" stroke="#263238" stroke-linecap="round" stroke-linejoin="round"/>
<path d="M166.178 75.4264C166.178 75.4264 161.801 70.3127 155.72 69.3603C149.639 68.4079 149.228 77.2545 157.002 81.1345C159.182 82.135 161.598 82.5112 163.98 82.2211C163.98 82.2211 157.777 89.54 161.795 90.7098C170.799 93.3433 168.844 79.5492 168.844 79.5492L166.178 75.4264Z" fill="white" stroke="#263238" stroke-linecap="round" stroke-linejoin="round"/>
<path d="M167.646 75.0747C167.646 75.0747 165.082 68.868 167.005 63.0257C168.927 57.1833 176.547 61.1528 176.463 69.8268C176.434 72.0711 175.832 74.271 174.714 76.2189C174.714 76.2189 184.493 74.1415 183.288 78.1365C180.552 87.2196 170.119 79.319 170.119 79.319L167.646 75.0747Z" fill="white" stroke="#263238" stroke-linecap="round" stroke-linejoin="round"/>
<path d="M171.042 82.828C170.931 82.8279 170.821 82.799 170.725 82.7441C170.628 82.6892 170.548 82.6102 170.491 82.5147L164.409 72.3258C164.344 72.1816 164.335 72.0184 164.383 71.8676C164.431 71.7169 164.534 71.5895 164.671 71.51C164.808 71.4304 164.97 71.4044 165.125 71.4371C165.281 71.4697 165.418 71.5586 165.512 71.6866L171.593 81.8755C171.68 82.0213 171.705 82.1955 171.663 82.3597C171.621 82.5239 171.515 82.6648 171.369 82.7513C171.268 82.8037 171.156 82.8301 171.042 82.828Z" fill="#263238"/>
<path d="M165.448 73.2147C165.448 73.2147 163.256 68.606 159.366 68.1011" stroke="#263238" stroke-linecap="round" stroke-linejoin="round"/>
<path d="M165.512 71.6736C165.512 71.6736 164.23 67.8767 165.204 65.4478" stroke="#263238" stroke-linecap="round" stroke-linejoin="round"/>
<path d="M161.634 75.9825C161.404 77.1075 159.712 77.7211 157.879 77.3504C156.046 76.9796 154.726 75.7587 154.957 74.6337C155.188 73.5087 156.88 72.8887 158.712 73.2658C160.545 73.643 161.865 74.8575 161.634 75.9825Z" fill="#92E3A9" stroke="#263238" stroke-linecap="round" stroke-linejoin="round"/>
<path d="M166.184 83.9086C166.825 84.3368 166.825 85.5385 166.101 86.606C165.377 87.6735 164.307 88.1785 163.653 87.7502C162.999 87.3219 163.012 86.1202 163.736 85.0527C164.461 83.9853 165.531 83.4803 166.184 83.9086Z" fill="#92E3A9" stroke="#263238" stroke-linecap="round" stroke-linejoin="round"/>
<path d="M179.539 78.5584C179.539 79.3382 178.527 79.9838 177.252 80.003C175.976 80.0221 174.945 79.4021 174.945 78.6223C174.945 77.8424 175.963 77.1969 177.239 77.1777C178.514 77.1585 179.533 77.7849 179.539 78.5584Z" fill="#92E3A9" stroke="#263238" stroke-linecap="round" stroke-linejoin="round"/>
<path d="M171.645 71.8846C170.498 72.0124 169.402 70.6062 169.19 68.7333C168.979 66.8604 169.748 65.256 170.895 65.1282C172.042 65.0003 173.138 66.4066 173.343 68.2795C173.548 70.1523 172.792 71.7567 171.645 71.8846Z" fill="#92E3A9" stroke="#263238" stroke-linecap="round" stroke-linejoin="round"/>
<path d="M4.19116 285.681H302.68" stroke="#263238" stroke-linecap="round" stroke-linejoin="round"/>
</g>
<defs>
<clipPath id="clip0">
<rect width="303" height="286" fill="white"/>
</clipPath>
</defs>
</svg>
